# xmcd
#
# Track frame offsets:
#	150
#	20475
#	38581
#	53167
#	68698
#	86168
#	106929
#	128957
#	159047
#	171903
#	185403
#	202256
#	253364
#	270504
#	288202
#	316085
#
# Disc length: 4401 seconds
#
# Revision: 0
# Processed by: cddbd v1.5.2PL0 Copyright (c) Steve Scherf et al.
# Submitted via: dBpowerAMP V4.0
#
DISCID=dc112f10
DTITLE=Whiskeytown - 1995-05-25 Cat's Cradle
DYEAR=1900
DGENRE=Country
TTITLE0=Wake Up
TTITLE1=Days
TTITLE2=Yesterday's News
TTITLE3=Excuse Me While I Break My Own Heart(95)
TTITLE4=Kiddin' You
TTITLE5=Don't Lie
TTITLE6=Hear What I Say
TTITLE7=Everything I Do
TTITLE8=I Shouln't Take It So Hard
TTITLE9=Beautiful
TTITLE10=Waiting To Derail
TTITLE11=Not Home Anymore
TTITLE12=Silver And Gold
TTITLE13=Dancing With The Women At The Bar
TTITLE14=Two Black Roses
TTITLE15=I Lost The Way
EXTD=
EXTT0=
EXTT1=
EXTT2=
EXTT3=
EXTT4=
EXTT5=
EXTT6=
EXTT7=
EXTT8=
EXTT9=
EXTT10=
EXTT11=
EXTT12=
EXTT13=
EXTT14=
EXTT15=
PLAYORDER=
